<?xml version="1.0" encoding="utf-8"?>
<!-- Generator: Adobe Illustrator 21.0.0, SVG Export Plug-In . SVG Version: 6.00 Build 0)  -->
<svg version="1.1" id="Layer_1" xmlns="http://www.w3.org/2000/svg" xmlns:xlink="http://www.w3.org/1999/xlink" x="0px" y="0px"
	 viewBox="0 0 75 75" style="enable-background:new 0 0 75 75;" xml:space="preserve">
<style type="text/css">
	.st0{fill:#7F7F7F;}
</style>
<path class="st0" d="M37.5,1.5c19.9,0,36,16.1,36,36s-16.1,36-36,36s-36-16.1-36-36S17.6,1.5,37.5,1.5 M37.5,0C16.8,0,0,16.8,0,37.5
	S16.8,75,37.5,75S75,58.2,75,37.5S58.2,0,37.5,0L37.5,0z"/>
<path class="st0" d="M50.8,11.2L43,11c-3.1-0.1-6,1.1-8.2,3.2c-2.2,2.2-3.4,5.1-3.4,8.1v7.4h-7.2c-0.3,0-0.5,0.2-0.5,0.5v9.4
	c0,0.3,0.2,0.5,0.5,0.5h7.2v23.5c0,0.3,0.2,0.5,0.5,0.5h9.6c0.3,0,0.5-0.2,0.5-0.5V40.2h7.3c0.3,0,0.5-0.2,0.5-0.5l1.2-9.3
	c0-0.2,0-0.3-0.1-0.4c-0.1-0.1-0.2-0.2-0.4-0.2H42v-4.7c0,0-0.2-2.3,1-3.6c0.5-0.6,1.3-0.9,2.3-0.9h5.5c0.3,0,0.5-0.2,0.5-0.5v-8.4
	C51.3,11.5,51.1,11.2,50.8,11.2z"/>
</svg>
