<?xml version="1.0" encoding="utf-8"?>
<!-- Generator: Adobe Illustrator 21.0.0, SVG Export Plug-In . SVG Version: 6.00 Build 0)  -->
<svg version="1.1" id="Layer_1" xmlns="http://www.w3.org/2000/svg" xmlns:xlink="http://www.w3.org/1999/xlink" x="0px" y="0px"
	 viewBox="0 0 100 100" style="enable-background:new 0 0 100 100;" xml:space="preserve">
<style type="text/css">
	.st0{fill:url(#SVGID_1_);}
	.st1{fill:url(#SVGID_2_);}
	.st2{fill:url(#SVGID_3_);}
	.st3{fill:url(#SVGID_4_);}
</style>
<g>
	<g>
		<linearGradient id="SVGID_1_" gradientUnits="userSpaceOnUse" x1="89.3979" y1="10.6021" x2="7.5912" y2="92.4088">
			<stop  offset="0" style="stop-color:#44469D"/>
			<stop  offset="1" style="stop-color:#5667B0"/>
		</linearGradient>
		<path class="st0" d="M69.3,99.9H30.7c-16.9,0-30.6-13.7-30.6-30.6V30.7c0-16.9,13.7-30.6,30.6-30.6h38.7
			c16.9,0,30.6,13.7,30.6,30.6v38.7C99.9,86.2,86.2,99.9,69.3,99.9z M30.7,3.8C15.8,3.8,3.8,15.8,3.8,30.7v38.7
			c0,14.8,12.1,26.9,26.9,26.9h38.7c14.8,0,26.9-12.1,26.9-26.9V30.7c0-14.8-12.1-26.9-26.9-26.9H30.7z"/>
	</g>
	<linearGradient id="SVGID_2_" gradientUnits="userSpaceOnUse" x1="90.6012" y1="11.8055" x2="8.7945" y2="93.6122">
		<stop  offset="0" style="stop-color:#44469D"/>
		<stop  offset="1" style="stop-color:#5667B0"/>
	</linearGradient>
	<path class="st1" d="M63.3,23.6l-7.8-0.2c-3.1-0.1-6,1.1-8.2,3.2c-2.2,2.2-3.4,5.1-3.4,8.1v7.4h-7.2c-0.3,0-0.5,0.2-0.5,0.5V52
		c0,0.3,0.2,0.5,0.5,0.5h7.2V76c0,0.3,0.2,0.5,0.5,0.5H54c0.3,0,0.5-0.2,0.5-0.5V52.6h7.3c0.3,0,0.5-0.2,0.5-0.5l1.2-9.3
		c0-0.2,0-0.3-0.1-0.4c-0.1-0.1-0.2-0.2-0.4-0.2h-8.5l0-4.7c0,0-0.2-2.3,1-3.6c0.5-0.6,1.3-0.9,2.3-0.9h5.5c0.3,0,0.5-0.2,0.5-0.5
		v-8.4C63.8,23.9,63.6,23.6,63.3,23.6z"/>
</g>
</svg>
