<?xml version="1.0" encoding="utf-8"?>
<!-- Generator: Adobe Illustrator 21.0.0, SVG Export Plug-In . SVG Version: 6.00 Build 0)  -->
<svg version="1.1" id="Layer_1" xmlns="http://www.w3.org/2000/svg" xmlns:xlink="http://www.w3.org/1999/xlink" x="0px" y="0px"
	 viewBox="0 0 75 75" style="enable-background:new 0 0 75 75;" xml:space="preserve">
<style type="text/css">
	.st0{fill:#7F7F7F;}
</style>
<path class="st0" d="M37.5,1.5c19.9,0,36,16.1,36,36s-16.1,36-36,36s-36-16.1-36-36S17.6,1.5,37.5,1.5 M37.5,0C16.8,0,0,16.8,0,37.5
	S16.8,75,37.5,75S75,58.2,75,37.5S58.2,0,37.5,0L37.5,0z"/>
<g>
	<path class="st0" d="M47.8,13.8H27.2c-7.7,0-13.9,6.3-13.9,13.9v20.5c0,7.7,6.3,13.9,13.9,13.9h20.5c7.7,0,13.9-6.3,13.9-13.9V27.7
		C61.7,20,55.5,13.8,47.8,13.8z M56.8,48.3c0,5-4,9-9,9H27.2c-5,0-9-4-9-9V27.7c0-5,4-9,9-9h20.5c5,0,9,4,9,9v20.6
		C56.7,48.3,56.8,48.3,56.8,48.3z"/>
	<path class="st0" d="M37.5,26.8c-6.2,0-11.2,5-11.2,11.2s5,11.2,11.2,11.2s11.2-5,11.2-11.2S43.7,26.8,37.5,26.8z M37.5,44.1
		c-3.3,0-6.1-2.7-6.1-6.1c0-3.3,2.7-6.1,6.1-6.1c3.3,0,6.1,2.7,6.1,6.1C43.6,41.3,40.8,44.1,37.5,44.1z"/>
	<circle class="st0" cx="50.1" cy="25.2" r="3.3"/>
</g>
</svg>
