<?xml version="1.0" encoding="utf-8"?>
<!-- Generator: Adobe Illustrator 21.0.0, SVG Export Plug-In . SVG Version: 6.00 Build 0)  -->
<svg version="1.1" id="Layer_1" xmlns="http://www.w3.org/2000/svg" xmlns:xlink="http://www.w3.org/1999/xlink" x="0px" y="0px"
	 viewBox="0 0 100 100" style="enable-background:new 0 0 100 100;" xml:space="preserve">
<style type="text/css">
	.st0{fill:url(#SVGID_1_);}
	.st1{fill:url(#SVGID_2_);}
	.st2{fill:url(#SVGID_3_);}
	.st3{fill:url(#SVGID_4_);}
	.st4{fill:url(#SVGID_5_);}
	.st5{fill:url(#SVGID_6_);}
	.st6{fill:url(#SVGID_7_);}
	.st7{fill:url(#SVGID_8_);}
</style>
<g>
	<g>
		<linearGradient id="SVGID_1_" gradientUnits="userSpaceOnUse" x1="95.0228" y1="4.9772" x2="6.0681" y2="93.9319">
			<stop  offset="0" style="stop-color:#F15B34"/>
			<stop  offset="0.482" style="stop-color:#EE3B95"/>
			<stop  offset="1" style="stop-color:#224093"/>
		</linearGradient>
		<path class="st0" d="M69.3,99.9H30.7c-16.9,0-30.6-13.7-30.6-30.6V30.7c0-16.9,13.7-30.6,30.6-30.6h38.7
			c16.9,0,30.6,13.7,30.6,30.6v38.7C99.9,86.2,86.2,99.9,69.3,99.9z M30.7,3.8C15.8,3.8,3.8,15.8,3.8,30.7v38.7
			c0,14.8,12.1,26.9,26.9,26.9h38.7c14.8,0,26.9-12.1,26.9-26.9V30.7c0-14.8-12.1-26.9-26.9-26.9H30.7z"/>
	</g>
	<g>
		<linearGradient id="SVGID_2_" gradientUnits="userSpaceOnUse" x1="95.0229" y1="4.9771" x2="6.0679" y2="93.9321">
			<stop  offset="0" style="stop-color:#F15B34"/>
			<stop  offset="0.482" style="stop-color:#EE3B95"/>
			<stop  offset="1" style="stop-color:#224093"/>
		</linearGradient>
		<path class="st1" d="M60.3,25.8H39.7c-7.7,0-13.9,6.3-13.9,13.9v20.5c0,7.7,6.3,13.9,13.9,13.9h20.5c7.7,0,13.9-6.3,13.9-13.9
			V39.7C74.2,32,68,25.8,60.3,25.8z M69.3,60.3c0,5-4,9-9,9H39.7c-5,0-9-4-9-9V39.7c0-5,4-9,9-9h20.5c5,0,9,4,9,9V60.3z"/>
		<linearGradient id="SVGID_3_" gradientUnits="userSpaceOnUse" x1="95.0229" y1="4.977" x2="6.0679" y2="93.932">
			<stop  offset="0" style="stop-color:#F15B34"/>
			<stop  offset="0.482" style="stop-color:#EE3B95"/>
			<stop  offset="1" style="stop-color:#224093"/>
		</linearGradient>
		<path class="st2" d="M50,38.8c-6.2,0-11.2,5-11.2,11.2c0,6.2,5,11.2,11.2,11.2s11.2-5,11.2-11.2C61.2,43.8,56.2,38.8,50,38.8z
			 M50,56.1c-3.3,0-6.1-2.7-6.1-6.1c0-3.3,2.7-6.1,6.1-6.1c3.3,0,6.1,2.7,6.1,6.1C56.1,53.3,53.3,56.1,50,56.1z"/>
		<linearGradient id="SVGID_4_" gradientUnits="userSpaceOnUse" x1="94.9302" y1="4.8844" x2="5.9753" y2="93.8394">
			<stop  offset="0" style="stop-color:#F15B34"/>
			<stop  offset="0.482" style="stop-color:#EE3B95"/>
			<stop  offset="1" style="stop-color:#224093"/>
		</linearGradient>
		<circle class="st3" cx="62.6" cy="37.2" r="3.3"/>
	</g>
</g>
</svg>
