<?xml version="1.0" encoding="utf-8"?>
<!-- Generator: Adobe Illustrator 21.0.0, SVG Export Plug-In . SVG Version: 6.00 Build 0)  -->
<svg version="1.1" id="Layer_1" xmlns="http://www.w3.org/2000/svg" xmlns:xlink="http://www.w3.org/1999/xlink" x="0px" y="0px"
	 viewBox="0 0 100 100" style="enable-background:new 0 0 100 100;" xml:space="preserve">
<style type="text/css">
	.st0{fill:#BDBDBD;}
</style>
<g>
	<g>
		<path class="st0" d="M69.3,99.9H30.7c-16.9,0-30.6-13.7-30.6-30.6V30.7c0-16.9,13.7-30.6,30.6-30.6h38.7
			c16.9,0,30.6,13.7,30.6,30.6v38.7C99.9,86.2,86.2,99.9,69.3,99.9z M30.7,3.8c-14.9,0-26.9,12-26.9,26.9v38.7
			c0,14.8,12.1,26.9,26.9,26.9h38.7c14.8,0,26.9-12.1,26.9-26.9V30.7c0-14.8-12.1-26.9-26.9-26.9C69.4,3.8,30.7,3.8,30.7,3.8z"/>
	</g>
	<g>
		<path class="st0" d="M60.3,25.8H39.7c-7.7,0-13.9,6.3-13.9,13.9v20.5c0,7.7,6.3,13.9,13.9,13.9h20.5c7.7,0,13.9-6.3,13.9-13.9
			V39.7C74.2,32,68,25.8,60.3,25.8z M69.3,60.3c0,5-4,9-9,9H39.7c-5,0-9-4-9-9V39.7c0-5,4-9,9-9h20.5c5,0,9,4,9,9v20.6H69.3z"/>
		<path class="st0" d="M50,38.8c-6.2,0-11.2,5-11.2,11.2s5,11.2,11.2,11.2s11.2-5,11.2-11.2S56.2,38.8,50,38.8z M50,56.1
			c-3.3,0-6.1-2.7-6.1-6.1c0-3.3,2.7-6.1,6.1-6.1c3.3,0,6.1,2.7,6.1,6.1C56.1,53.3,53.3,56.1,50,56.1z"/>
		<circle class="st0" cx="62.6" cy="37.2" r="3.3"/>
	</g>
</g>
</svg>
