<?xml version="1.0" encoding="utf-8"?>
<!-- Generator: Adobe Illustrator 21.0.0, SVG Export Plug-In . SVG Version: 6.00 Build 0)  -->
<svg version="1.1" id="Layer_1" xmlns="http://www.w3.org/2000/svg" xmlns:xlink="http://www.w3.org/1999/xlink" x="0px" y="0px"
	 viewBox="0 0 150.4 34.8" style="enable-background:new 0 0 150.4 34.8;" xml:space="preserve">
<style type="text/css">
	.st0{fill:url(#SVGID_1_);}
</style>
<linearGradient id="SVGID_1_" gradientUnits="userSpaceOnUse" x1="0" y1="17.3786" x2="150.3692" y2="17.3786">
	<stop  offset="0" style="stop-color:#27AAE1"/>
	<stop  offset="0.3811" style="stop-color:#00A79D"/>
	<stop  offset="0.7914" style="stop-color:#60BB97"/>
	<stop  offset="1" style="stop-color:#75C695"/>
</linearGradient>
<path class="st0" d="M150.3,6l-7,0c-1.6,0-3.4,0.5-4.2,2.5c0,0-7,16.5-7,16.5c-0.2,0.4-0.4,0.7-0.6,0.8c-0.2,0.1-0.5,0.2-0.8,0.2
	s-0.6-0.1-0.8-0.2c-0.2-0.2-0.5-0.4-0.6-0.8c0,0-9.2-21.2-9.2-21.3c-0.4-0.9-1.2-3-4.6-3h-4.8h-2.2h-7.2h-3.5h-3.5
	c-2.7,0-5.1,0.4-7.1,1.2c-1.9,0.7-3.6,1.8-5,3.1c2.8,2.8,4,6.7,4.4,8.5c0.4-0.7,0.8-1.3,1.4-1.8c0.7-0.7,1.6-1.2,2.6-1.6
	c1-0.4,2.2-0.6,3.7-0.6h7c1.5,0,2.8,0.2,3.7,0.6c1,0.4,1.8,0.9,2.6,1.6c0.8,0.7,1.4,1.6,1.8,2.6c0.4,1,0.7,2,0.7,3.2
	c0,1-0.2,2-0.5,2.9c-0.4,0.9-0.9,1.7-1.5,2.4c-0.7,0.8-1.6,1.4-2.7,1.9c-1.1,0.5-2.4,0.7-4,0.7h-7c-1.6,0-2.9-0.2-4-0.7
	c-1.1-0.5-2-1.1-2.7-1.9c-0.7-0.7-1.2-1.5-1.5-2.4c-0.4-0.9-0.5-1.9-0.5-2.9c0-1.2-0.1-2.2-0.4-3.2c-0.2-1.3-0.6-2.5-1.1-3.6
	c-1-2.1-2.3-3.9-3.9-5.5c-1.5-1.4-3.2-2.5-5.3-3.2c-2-0.8-4.4-1.2-7.1-1.2h-7c-2.7,0-5.1,0.4-7.1,1.2c-0.7,0.3-1.4,0.6-2,0.9
	C52,3.4,52.7,4.9,52.8,8c0.1,2.6,0.2,4.3,0.2,5.3c0.4-0.6,0.8-1.1,1.3-1.6c0.7-0.7,1.6-1.2,2.6-1.6c1-0.4,2.2-0.6,3.7-0.6h7
	c1.5,0,2.8,0.2,3.7,0.6c1,0.4,1.8,0.9,2.6,1.6c0.8,0.7,1.4,1.6,1.8,2.6c0.4,1,0.7,2,0.7,3.2c0,1-0.2,2-0.5,2.9
	c-0.4,0.9-0.9,1.7-1.5,2.4c-0.7,0.8-1.6,1.4-2.7,1.9c-1.1,0.5-2.4,0.7-4,0.7h-7c-1.6,0-2.9-0.2-4-0.7c-1.1-0.5-2-1.1-2.7-1.9
	c-0.1-0.1-0.2-0.2-0.3-0.3c0,0,0,0,0,0c-1.8-1.7-2.1-5.2-2.1-6.8V9.7c0-1.9-0.3-3.4-0.8-4.6c-0.5-1.2-1.3-2.2-2.3-3
	c-0.8-0.6-1.6-1.1-2.6-1.5c-1-0.4-2-0.6-3.2-0.6c-2.1,0-3.9,0.6-5.2,1.7c-1.3,1.2-2.4,2.6-3.3,4.5l-7.5,16.4
	c-0.2,0.4-0.4,0.6-0.8,0.6c-0.4,0-0.7-0.2-0.8-0.6L17.4,6.2c-0.9-1.8-1.9-3.3-3.3-4.5C12.7,0.6,11,0,8.9,0C7.7,0,6.7,0.2,5.7,0.6
	C4.7,0.9,3.9,1.4,3.1,2c-1,0.8-1.8,1.8-2.3,3C0.3,6.2,0,7.8,0,9.7v17.8h3.8c2.6,0,4.7-2.1,4.7-4.7V11.2c0-0.3,0.1-0.5,0.2-0.7
	c0.2-0.1,0.3-0.2,0.5-0.2c0.3,0,0.5,0.1,0.6,0.4l10.1,21c0.5,1.1,1.3,1.8,2.3,2.3c1,0.5,2.1,0.7,3.3,0.7c1.2,0,2.3-0.2,3.3-0.7
	c1-0.5,1.8-1.3,2.3-2.3l10.1-21c0.1-0.3,0.3-0.4,0.6-0.4c0.2,0,0.4,0.1,0.5,0.2c0.2,0.1,0.2,0.4,0.2,0.7v6.1l0,0c0,0,0,0,0,0.1
	c0,2.2,0.4,4.3,1.1,6.2c0.8,1.9,1.8,3.6,3.2,5.1c1.5,1.7,3.4,3,5.6,4c2.2,1,4.8,1.5,7.8,1.5h7c3,0,5.6-0.5,7.8-1.5
	c2.1-0.9,4-2.2,5.5-3.8c1.5,1.6,3.3,2.9,5.5,3.8c2.2,1,4.8,1.5,7.8,1.5h7c3,0,5.6-0.5,7.8-1.5c2.2-1,4.1-2.3,5.6-4
	c1.3-1.5,2.4-3.2,3.2-5.1c0.1-0.4,0.3-0.7,0.4-1.1l2.8,6.2c1.8,4.1,5.1,6.1,9.7,6.1c2.4,0,4.3-0.5,5.9-1.5c1.5-1,2.8-2.5,3.7-4.6
	C140.2,28.6,149.7,7.6,150.3,6C150.4,6,150.4,6,150.3,6z"/>
</svg>
