<?xml version="1.0" encoding="utf-8"?>
<!-- Generator: Adobe Illustrator 21.0.0, SVG Export Plug-In . SVG Version: 6.00 Build 0)  -->
<svg version="1.1" id="Layer_1" xmlns="http://www.w3.org/2000/svg" xmlns:xlink="http://www.w3.org/1999/xlink" x="0px" y="0px"
	 viewBox="0 0 75 75" style="enable-background:new 0 0 75 75;" xml:space="preserve">
<style type="text/css">
	.st0{fill:#7F7F7F;}
	.st1{fill:#606161;}
</style>
<path class="st0" d="M37.5,1.5c19.9,0,36,16.1,36,36s-16.1,36-36,36s-36-16.1-36-36S17.6,1.5,37.5,1.5 M37.5,0C16.8,0,0,16.8,0,37.5
	S16.8,75,37.5,75S75,58.2,75,37.5S58.2,0,37.5,0L37.5,0z"/>
<path class="st1" d="M55.4,24.7c0,0,2.7-2.1,3.6-4.9c0,0-3.6,1.7-5.8,1.7c-1.7-2.2-4.5-3.6-7.5-3.6c-5.3,0-9.6,4.3-9.6,9.6
	c0,1.1,0.2,2.1,0.5,3h-0.1c-14.2-1-20-10.1-20-10.1s-3.5,7.2,2.2,12.9c0,0-1.5,0.2-3.2-0.8c0,0-1.2,6.2,6.6,9.5c0,0-2.2,0.6-3.4,0.3
	c0,0,1.8,5.7,8.8,6.5c0,0-2.9,3.6-13.1,4.4c0,0,16.8,11,33.1-3.9c0,0,7.1-6,8-18.1l4.9-7.8L55.4,24.7z"/>
</svg>
