<?xml version="1.0" encoding="utf-8"?>
<!-- Generator: Adobe Illustrator 21.0.0, SVG Export Plug-In . SVG Version: 6.00 Build 0)  -->
<svg version="1.1" id="Layer_1" xmlns="http://www.w3.org/2000/svg" xmlns:xlink="http://www.w3.org/1999/xlink" x="0px" y="0px"
	 viewBox="0 0 100 100" style="enable-background:new 0 0 100 100;" xml:space="preserve">
<style type="text/css">
	.st0{fill:url(#SVGID_1_);}
	.st1{fill:url(#SVGID_2_);}
</style>
<g>
	<g>
		<linearGradient id="SVGID_1_" gradientUnits="userSpaceOnUse" x1="94.6251" y1="5.3748" x2="4.5935" y2="95.4065">
			<stop  offset="0" style="stop-color:#80D2EC"/>
			<stop  offset="1" style="stop-color:#75A8DA"/>
		</linearGradient>
		<path class="st0" d="M69.3,99.9H30.7c-16.9,0-30.6-13.7-30.6-30.6V30.7c0-16.9,13.7-30.6,30.6-30.6h38.7
			c16.9,0,30.6,13.7,30.6,30.6v38.7C99.9,86.2,86.2,99.9,69.3,99.9z M30.7,3.8C15.8,3.8,3.8,15.8,3.8,30.7v38.7
			c0,14.8,12.1,26.9,26.9,26.9h38.7c14.8,0,26.9-12.1,26.9-26.9V30.7c0-14.8-12.1-26.9-26.9-26.9H30.7z"/>
	</g>
	<linearGradient id="SVGID_2_" gradientUnits="userSpaceOnUse" x1="89.8064" y1="0.5561" x2="-0.2256" y2="90.5881">
		<stop  offset="0" style="stop-color:#80D2EC"/>
		<stop  offset="1" style="stop-color:#75A8DA"/>
	</linearGradient>
	<path class="st1" d="M71.9,34.4c0,0,3.3-2.5,4.4-5.9c0,0-4.4,2.1-7,2.1c-2.1-2.7-5.4-4.4-9.1-4.4c-6.4,0-11.6,5.2-11.6,11.6
		c0,1.3,0.2,2.5,0.6,3.6c0,0-0.1,0-0.1,0c-17.2-1.2-24.2-12.2-24.2-12.2s-4.2,8.7,2.7,15.6c0,0-1.8,0.2-3.9-1c0,0-1.4,7.5,8,11.5
		c0,0-2.6,0.7-4.1,0.4c0,0,2.2,6.9,10.6,7.9c0,0-3.5,4.4-15.8,5.3c0,0,20.3,13.3,40-4.7c0,0,8.6-7.3,9.7-21.9l5.9-9.4L71.9,34.4z"/>
</g>
</svg>
