<?xml version="1.0" encoding="utf-8"?>
<!-- Generator: Adobe Illustrator 21.0.0, SVG Export Plug-In . SVG Version: 6.00 Build 0)  -->
<svg version="1.1" id="Layer_1" xmlns="http://www.w3.org/2000/svg" xmlns:xlink="http://www.w3.org/1999/xlink" x="0px" y="0px"
	 viewBox="0 0 75 75" style="enable-background:new 0 0 75 75;" xml:space="preserve">
<style type="text/css">
	.st0{fill:#7F7F7F;}
</style>
<path class="st0" d="M37.5,1.5c19.9,0,36,16.1,36,36s-16.1,36-36,36s-36-16.1-36-36S17.6,1.5,37.5,1.5 M37.5,0C16.8,0,0,16.8,0,37.5
	S16.8,75,37.5,75S75,58.2,75,37.5S58.2,0,37.5,0L37.5,0z"/>
<path class="st0" d="M52.1,19.4H22.8c-5.3,0-9.5,4.3-9.5,9.5v17.2c0,5.3,4.3,9.5,9.5,9.5h29.4c5.3,0,9.5-4.3,9.5-9.5V28.9
	C61.7,23.6,57.4,19.4,52.1,19.4z M31.5,45.5V29.6c0-1.2,1.4-2,2.5-1.4l13.3,7.9c1.1,0.6,1.1,2.1,0,2.8l-13.3,7.9
	C32.9,47.6,31.5,46.8,31.5,45.5z"/>
</svg>
