<?xml version="1.0" encoding="utf-8"?>
<!-- Generator: Adobe Illustrator 21.0.0, SVG Export Plug-In . SVG Version: 6.00 Build 0)  -->
<svg version="1.1" id="Layer_1" xmlns="http://www.w3.org/2000/svg" xmlns:xlink="http://www.w3.org/1999/xlink" x="0px" y="0px"
	 viewBox="0 0 100 100" style="enable-background:new 0 0 100 100;" xml:space="preserve">
<style type="text/css">
	.st0{fill:url(#SVGID_1_);}
	.st1{fill:url(#SVGID_2_);}
	.st2{fill:url(#SVGID_3_);}
	.st3{fill:url(#SVGID_4_);}
	.st4{fill:url(#SVGID_5_);}
	.st5{fill:url(#SVGID_6_);}
	.st6{fill:url(#SVGID_7_);}
	.st7{fill:url(#SVGID_8_);}
	.st8{fill:url(#SVGID_9_);}
	.st9{fill:url(#SVGID_10_);}
	.st10{fill:url(#SVGID_11_);}
	.st11{fill:url(#SVGID_12_);}
	.st12{fill:url(#SVGID_13_);}
	.st13{fill:url(#SVGID_14_);}
</style>
<g>
	<g>
		<linearGradient id="SVGID_1_" gradientUnits="userSpaceOnUse" x1="89.3653" y1="10.6347" x2="13.6487" y2="86.3513">
			<stop  offset="0" style="stop-color:#EE235B"/>
			<stop  offset="1" style="stop-color:#941937"/>
		</linearGradient>
		<path class="st0" d="M69.3,99.9H30.7c-16.9,0-30.6-13.7-30.6-30.6V30.7c0-16.9,13.7-30.6,30.6-30.6h38.7
			c16.9,0,30.6,13.7,30.6,30.6v38.7C99.9,86.2,86.2,99.9,69.3,99.9z M30.7,3.8C15.8,3.8,3.8,15.8,3.8,30.7v38.7
			c0,14.8,12.1,26.9,26.9,26.9h38.7c14.8,0,26.9-12.1,26.9-26.9V30.7c0-14.8-12.1-26.9-26.9-26.9H30.7z"/>
	</g>
	<linearGradient id="SVGID_2_" gradientUnits="userSpaceOnUse" x1="89.3653" y1="10.6347" x2="13.6486" y2="86.3514">
		<stop  offset="0" style="stop-color:#EE235B"/>
		<stop  offset="1" style="stop-color:#941937"/>
	</linearGradient>
	<path class="st1" d="M66.6,29.4H33.4c-6,0-10.8,4.9-10.8,10.8v19.5c0,6,4.9,10.8,10.8,10.8h33.3c6,0,10.8-4.9,10.8-10.8V40.2
		C77.5,34.2,72.6,29.4,66.6,29.4z M43.2,59V41c0-1.4,1.6-2.3,2.8-1.6l15.1,9c1.2,0.7,1.2,2.4,0,3.2l-15.1,9
		C44.8,61.4,43.2,60.5,43.2,59z"/>
</g>
</svg>
