<?xml version="1.0" encoding="utf-8"?>
<!-- Generator: Adobe Illustrator 21.0.0, SVG Export Plug-In . SVG Version: 6.00 Build 0)  -->
<svg version="1.1" id="Layer_1" xmlns="http://www.w3.org/2000/svg" xmlns:xlink="http://www.w3.org/1999/xlink" x="0px" y="0px"
	 viewBox="0 0 100 100" style="enable-background:new 0 0 100 100;" xml:space="preserve">
<style type="text/css">
	.st0{fill:#BDBDBD;}
</style>
<g>
	<g>
		<path class="st0" d="M69.3,99.9H30.7c-16.9,0-30.6-13.7-30.6-30.6V30.7c0-16.9,13.7-30.6,30.6-30.6h38.7
			c16.9,0,30.6,13.7,30.6,30.6v38.7C99.9,86.2,86.2,99.9,69.3,99.9z M30.7,3.8c-14.9,0-26.9,12-26.9,26.9v38.7
			c0,14.8,12.1,26.9,26.9,26.9h38.7c14.8,0,26.9-12.1,26.9-26.9V30.7c0-14.8-12.1-26.9-26.9-26.9C69.4,3.8,30.7,3.8,30.7,3.8z"/>
	</g>
	<path class="st0" d="M66.6,29.4H33.4c-6,0-10.8,4.9-10.8,10.8v19.5c0,6,4.9,10.8,10.8,10.8h33.3c6,0,10.8-4.9,10.8-10.8V40.2
		C77.5,34.2,72.6,29.4,66.6,29.4z M43.2,59V41c0-1.4,1.6-2.3,2.8-1.6l15.1,9c1.2,0.7,1.2,2.4,0,3.2l-15.1,9
		C44.8,61.4,43.2,60.5,43.2,59z"/>
</g>
</svg>
